<?xml version="1.0" standalone="no"?>
<!DOCTYPE svg PUBLIC "-//W3C//DTD SVG 20010904//EN"
 "http://www.w3.org/TR/2001/REC-SVG-20010904/DTD/svg10.dtd">
<svg version="1.0" xmlns="http://www.w3.org/2000/svg"
 width="760.000000pt" height="760.000000pt" viewBox="0 0 760.000000 760.000000"
 preserveAspectRatio="xMidYMid meet">
<metadata>
Created by potrace 1.13, written by Peter Selinger 2001-2015
</metadata>
<g transform="translate(0.000000,760.000000) scale(0.100000,-0.100000)"
fill="#000000" stroke="none">
<path d="M1965 6849 c-72 -12 -186 -52 -242 -85 -73 -42 -164 -140 -201 -215
-47 -98 -65 -186 -65 -319 0 -380 181 -813 606 -1453 166 -251 242 -376 318
-522 75 -145 150 -315 148 -339 0 -6 -41 -42 -91 -81 -310 -241 -591 -649
-763 -1110 -56 -150 -68 -220 -62 -360 7 -162 27 -226 135 -437 2 -5 -16 -8
-39 -8 -64 0 -286 -29 -349 -45 -63 -17 -38 -14 120 10 52 8 138 18 190 21
l95 6 25 -38 c14 -21 49 -64 79 -96 29 -32 51 -61 49 -64 -5 -5 -189 -34 -216
-34 -9 0 -13 -3 -9 -6 3 -3 60 1 125 10 l120 17 52 -48 c127 -117 307 -234
515 -334 520 -250 1137 -336 1704 -238 470 81 917 275 1225 529 l98 82 80 -12
c43 -7 81 -10 84 -8 3 3 -31 11 -76 18 l-80 12 52 57 c28 31 67 77 86 104 18
26 37 47 41 47 20 0 244 -30 290 -40 30 -5 56 -8 59 -6 8 8 -109 30 -248 46
l-95 12 48 96 c65 133 89 230 90 367 1 136 -18 215 -103 416 -203 480 -476
855 -794 1090 -47 35 -86 69 -86 75 0 19 66 169 107 242 61 111 134 220 267
400 418 567 646 1012 712 1393 20 113 15 337 -9 411 -66 203 -205 329 -432
390 -109 29 -348 32 -445 5 -180 -49 -388 -182 -548 -352 -377 -399 -629
-1165 -668 -2030 l-7 -150 -148 -1 -148 -1 -5 41 c-3 23 -7 109 -10 191 -6
186 -28 388 -67 614 -114 673 -346 1170 -686 1473 -131 117 -322 221 -460 252
-78 17 -279 20 -368 5z m350 -84 c204 -43 460 -230 631 -461 301 -406 496
-1101 521 -1850 l6 -190 -84 -13 c-46 -6 -92 -14 -101 -17 -14 -4 -18 0 -18
18 0 38 -48 332 -81 498 -89 449 -221 829 -368 1057 -63 98 -184 216 -256 249
-116 54 -233 54 -348 1 -124 -57 -171 -166 -136 -317 17 -74 90 -218 194 -380
234 -368 382 -664 470 -940 30 -95 75 -284 75 -316 0 -17 -23 -35 -107 -82
l-107 -60 -57 133 c-87 202 -165 340 -371 655 -482 736 -638 1099 -638 1479 0
179 42 301 135 395 57 56 184 120 280 140 92 19 272 19 360 1z m3100 -25 c259
-37 420 -169 471 -386 25 -106 15 -305 -24 -454 -88 -342 -306 -745 -670
-1238 -171 -232 -261 -374 -329 -522 -29 -63 -54 -119 -56 -124 -2 -7 -190 80
-214 99 -5 3 42 154 87 280 111 315 260 611 464 923 173 265 216 361 216 481
0 118 -51 190 -171 238 -240 97 -475 -35 -657 -370 -154 -282 -300 -783 -379
-1301 l-18 -118 -65 6 c-36 4 -80 9 -99 13 l-34 6 7 136 c53 1054 378 1866
875 2186 209 135 378 176 596 145z m-2950 -735 c301 -78 553 -648 700 -1580
13 -88 25 -171 25 -185 0 -23 -10 -28 -143 -72 -78 -25 -143 -45 -144 -44 -2
1 -12 45 -22 97 -73 350 -245 729 -542 1190 -100 156 -139 229 -168 317 -50
149 -6 237 139 276 71 19 84 19 155 1z m2663 -34 c122 -37 157 -84 149 -194
-4 -58 -13 -86 -55 -171 -28 -55 -90 -159 -138 -231 -242 -365 -429 -755 -539
-1127 -16 -54 -33 -98 -38 -98 -5 0 -53 13 -106 30 -53 16 -115 34 -138 40
-50 13 -50 11 -28 150 133 835 377 1431 644 1574 93 50 155 57 249 27z m-1118
-1791 c287 -36 558 -127 770 -260 356 -222 642 -571 859 -1047 127 -280 145
-344 138 -513 -3 -106 -8 -137 -34 -206 -16 -45 -48 -113 -71 -151 l-41 -70
-318 -5 -318 -5 -30 27 c-153 139 -535 278 -846 306 -59 6 -72 10 -79 28 -14
36 -46 57 -122 78 -102 29 -312 31 -418 4 -72 -19 -119 -49 -131 -85 -3 -8
-49 -19 -134 -32 -325 -47 -603 -146 -774 -275 l-71 -53 -273 6 -273 6 -36 61
c-111 189 -145 386 -98 571 61 238 248 605 431 847 79 104 250 281 349 361
265 215 580 350 934 402 111 16 470 19 586 5z m-165 -1855 c48 -9 100 -22 117
-31 l30 -16 -23 -25 c-25 -27 -93 -64 -197 -107 l-63 -27 -55 20 c-117 44
-224 109 -224 135 0 18 43 35 131 51 100 18 180 18 284 0z m-405 -136 c33 -22
99 -57 147 -78 l88 -37 -4 -190 c-4 -212 -3 -209 -79 -242 -102 -43 -228 -38
-395 18 -107 36 -119 37 -115 8 2 -19 18 -28 83 -51 44 -16 112 -34 150 -41
l70 -12 48 -115 c26 -63 56 -133 67 -157 l20 -42 186 2 186 3 57 149 57 150
69 12 c108 18 245 77 245 104 0 23 -33 21 -90 -4 -175 -75 -361 -75 -472 1
-44 30 -43 27 -32 275 l7 135 36 13 c73 26 183 80 219 108 29 23 45 29 72 25
356 -43 640 -134 820 -262 l65 -46 -105 -13 c-58 -7 -139 -19 -180 -27 -41 -8
-57 -12 -35 -10 22 3 104 12 183 21 l143 16 31 -28 c25 -24 78 -111 78 -129 0
-3 -55 -6 -122 -7 l-123 -2 125 -6 125 -5 -1 -51 c-4 -135 -135 -273 -354
-372 -36 -16 -121 -46 -190 -66 -569 -164 -1133 -151 -1689 39 -252 86 -338
129 -412 205 -63 64 -102 148 -97 209 l3 36 130 5 130 6 -127 2 c-71 1 -128 5
-128 10 0 15 59 108 83 130 l25 24 134 -16 c73 -8 156 -18 183 -22 28 -4 47
-4 44 -1 -3 4 -79 16 -170 27 -90 12 -168 22 -173 23 -13 4 104 82 181 121
175 88 457 163 736 195 4 1 34 -17 67 -40z m-1074 -282 c3 -2 -12 -31 -31 -63
-20 -32 -38 -69 -41 -81 -5 -19 -15 -22 -82 -27 -43 -4 -100 -8 -128 -11 l-52
-5 -64 68 c-35 37 -74 83 -88 101 l-24 34 253 -6 c140 -3 255 -8 257 -10z
m3244 4 c0 -10 -86 -108 -140 -159 l-35 -33 -90 6 c-49 3 -125 8 -167 12 l-77
6 -12 36 c-7 20 -25 55 -40 78 -16 23 -29 44 -29 47 0 8 103 12 358 14 136 1
232 -2 232 -7z m-3328 -244 c4 -40 15 -82 32 -116 15 -29 21 -50 14 -45 -41
23 -190 129 -231 163 l-48 40 43 5 c24 4 70 8 103 9 33 2 65 4 71 5 7 1 13
-23 16 -61z m3036 47 c50 -3 92 -10 92 -14 0 -22 -268 -204 -390 -265 l-55
-27 36 38 c72 78 109 159 109 242 l0 44 58 -6 c31 -3 99 -8 150 -12z m-1635
-256 l6 -168 -72 0 -73 0 -55 133 -55 134 73 10 c40 6 94 21 120 34 26 14 49
24 49 24 1 0 4 -75 7 -167z m102 137 c31 -14 83 -28 116 -32 69 -7 69 10 4
-158 l-43 -110 -66 -3 -66 -3 0 74 c0 41 -3 115 -6 165 -4 51 -5 92 -2 92 3 0
31 -11 63 -25z"/>
<path d="M2691 2964 c-170 -161 -74 -674 108 -579 83 43 135 221 111 381 -21
138 -71 219 -143 231 -31 5 -40 1 -76 -33z"/>
<path d="M4604 2990 c-62 -25 -115 -156 -116 -289 -1 -109 14 -182 52 -247 77
-136 198 -91 246 91 18 64 18 216 0 280 -36 135 -104 197 -182 165z"/>
</g>
</svg>
